<svg xmlns="http://www.w3.org/2000/svg" viewBox="0 0 160 160" role="img" aria-labelledby="t d">
<title id="t">InAct Entertainment ie logo</title><desc id="d">Black circular ie emblem surrounded by metallic silver dots.</desc>
<defs>
  <radialGradient id="orb" cx="35%" cy="30%" r="70%"><stop offset="0" stop-color="#fff"/><stop offset=".22" stop-color="#d8d8d8"/><stop offset=".5" stop-color="#777"/><stop offset=".72" stop-color="#f5f5f5"/><stop offset="1" stop-color="#5b5b5b"/></radialGradient>
  <radialGradient id="disc" cx="40%" cy="30%" r="80%"><stop offset="0" stop-color="#292929"/><stop offset=".55" stop-color="#090909"/><stop offset="1" stop-color="#111"/></radialGradient>
</defs>
<g fill="url(#orb)">
  <circle cx="80" cy="8" r="4"/><circle cx="104" cy="12" r="5"/><circle cx="126" cy="23" r="4"/><circle cx="143" cy="42" r="5"/>
  <circle cx="152" cy="64" r="4"/><circle cx="154" cy="88" r="5"/><circle cx="147" cy="112" r="4"/><circle cx="132" cy="133" r="5"/>
  <circle cx="111" cy="147" r="4"/><circle cx="87" cy="154" r="5"/><circle cx="63" cy="151" r="4"/><circle cx="40" cy="140" r="5"/>
  <circle cx="22" cy="123" r="4"/><circle cx="10" cy="102" r="5"/><circle cx="6" cy="78" r="4"/><circle cx="12" cy="54" r="5"/>
  <circle cx="25" cy="34" r="4"/><circle cx="45" cy="19" r="5"/>
  <circle cx="80" cy="21" r="7"/><circle cx="107" cy="27" r="7"/><circle cx="130" cy="45" r="7"/><circle cx="139" cy="72" r="7"/>
  <circle cx="137" cy="99" r="7"/><circle cx="122" cy="123" r="7"/><circle cx="98" cy="137" r="7"/><circle cx="70" cy="139" r="7"/>
  <circle cx="44" cy="128" r="7"/><circle cx="25" cy="107" r="7"/><circle cx="20" cy="80" r="7"/><circle cx="28" cy="53" r="7"/><circle cx="50" cy="32" r="7"/>
</g>
<circle cx="80" cy="80" r="49" fill="url(#disc)" stroke="#f8f8f8" stroke-width="4"/>
<circle cx="80" cy="80" r="44" fill="none" stroke="#555" stroke-width="1.5" opacity=".9"/>
<text x="47" y="105" fill="#fff" font-family="Georgia, 'Times New Roman', serif" font-size="73" font-style="italic" letter-spacing="-12">ie</text>
<path d="M47 52l16-7-8 12-17 7z" fill="#fff"/>
</svg>